<mxfile host="36d3b258-8111-4819-baff-4545756e6324" modified="2020-08-28T07:14:33.439Z" agent="5.0 (Macintosh; Intel Mac OS X 10_14_6) AppleWebKit/537.36 (KHTML, like Gecko) Code/1.48.2 Chrome/78.0.3904.130 Electron/7.3.2 Safari/537.36" etag="G3zqsX38g9wWIml8zhMF" version="13.1.3">
    <diagram id="Smwln04nOdzFtBB0ICNr" name="Page-1">
        <mxGraphModel dx="1500" dy="476" grid="1" gridSize="10" guides="1" tooltips="1" connect="1" arrows="1" fold="1" page="1" pageScale="1" pageWidth="827" pageHeight="1169" math="0" shadow="0">
            <root>
                <mxCell id="0"/>
                <mxCell id="1" parent="0"/>
                <mxCell id="wuwbTMI61X3P9vxArzpo-1" value="listener1" style="rounded=1;whiteSpace=wrap;html=1;fontStyle=1;strokeWidth=2;" parent="1" vertex="1">
                    <mxGeometry x="80" y="240" width="90" height="40" as="geometry"/>
                </mxCell>
                <mxCell id="wuwbTMI61X3P9vxArzpo-2" value="listener2" style="rounded=1;whiteSpace=wrap;html=1;fontStyle=1;strokeWidth=2;" parent="1" vertex="1">
                    <mxGeometry x="170" y="240" width="90" height="40" as="geometry"/>
                </mxCell>
                <mxCell id="wuwbTMI61X3P9vxArzpo-3" value="listener3" style="rounded=1;whiteSpace=wrap;html=1;fontStyle=1;strokeWidth=2;" parent="1" vertex="1">
                    <mxGeometry x="260" y="240" width="90" height="40" as="geometry"/>
                </mxCell>
                <mxCell id="wuwbTMI61X3P9vxArzpo-5" value="&lt;span style=&quot;font-weight: 700&quot;&gt;listener1&lt;/span&gt;" style="rounded=1;whiteSpace=wrap;html=1;strokeWidth=2;" parent="1" vertex="1">
                    <mxGeometry x="80" y="410" width="90" height="40" as="geometry"/>
                </mxCell>
                <mxCell id="wuwbTMI61X3P9vxArzpo-6" value="&lt;span style=&quot;font-weight: 700&quot;&gt;listener2&lt;/span&gt;" style="rounded=1;whiteSpace=wrap;html=1;strokeWidth=2;" parent="1" vertex="1">
                    <mxGeometry x="170" y="410" width="90" height="40" as="geometry"/>
                </mxCell>
                <mxCell id="wuwbTMI61X3P9vxArzpo-7" value="&lt;span style=&quot;font-weight: 700&quot;&gt;listener3&lt;/span&gt;" style="rounded=1;whiteSpace=wrap;html=1;strokeWidth=2;" parent="1" vertex="1">
                    <mxGeometry x="260" y="410" width="90" height="40" as="geometry"/>
                </mxCell>
                <mxCell id="wuwbTMI61X3P9vxArzpo-9" value="Event Receiving Cache" style="text;html=1;strokeColor=none;fillColor=none;align=center;verticalAlign=middle;whiteSpace=wrap;rounded=0;fontSize=14;fontStyle=1" parent="1" vertex="1">
                    <mxGeometry x="60" y="210" width="170" height="20" as="geometry"/>
                </mxCell>
                <mxCell id="wuwbTMI61X3P9vxArzpo-10" value="Event Doing Cache" style="text;html=1;strokeColor=none;fillColor=none;align=center;verticalAlign=middle;whiteSpace=wrap;rounded=0;fontSize=14;fontStyle=1" parent="1" vertex="1">
                    <mxGeometry x="30" y="380" width="130" height="20" as="geometry"/>
                </mxCell>
                <mxCell id="wuwbTMI61X3P9vxArzpo-11" value="" style="endArrow=classic;html=1;fontSize=14;" parent="1" edge="1">
                    <mxGeometry width="50" height="50" relative="1" as="geometry">
                        <mxPoint x="-20" y="260" as="sourcePoint"/>
                        <mxPoint x="80" y="260" as="targetPoint"/>
                    </mxGeometry>
                </mxCell>
                <mxCell id="wuwbTMI61X3P9vxArzpo-12" value="Listener Event" style="text;html=1;strokeColor=none;fillColor=none;align=center;verticalAlign=middle;whiteSpace=wrap;rounded=0;fontSize=14;fontStyle=1" parent="1" vertex="1">
                    <mxGeometry x="-70" y="250" width="40" height="20" as="geometry"/>
                </mxCell>
                <mxCell id="wuwbTMI61X3P9vxArzpo-17" value="" style="endArrow=classic;html=1;fontSize=14;exitX=1;exitY=0.5;exitDx=0;exitDy=0;" parent="1" source="wuwbTMI61X3P9vxArzpo-7" edge="1">
                    <mxGeometry width="50" height="50" relative="1" as="geometry">
                        <mxPoint x="490" y="460" as="sourcePoint"/>
                        <mxPoint x="420" y="430" as="targetPoint"/>
                    </mxGeometry>
                </mxCell>
                <mxCell id="wuwbTMI61X3P9vxArzpo-18" value="Reconcile&lt;br&gt;Listener Event" style="text;html=1;strokeColor=none;fillColor=none;align=center;verticalAlign=middle;whiteSpace=wrap;rounded=0;fontSize=14;fontStyle=1" parent="1" vertex="1">
                    <mxGeometry x="430" y="420" width="40" height="20" as="geometry"/>
                </mxCell>
                <mxCell id="wuwbTMI61X3P9vxArzpo-19" value="" style="shape=flexArrow;endArrow=classic;html=1;fontSize=14;endWidth=30;endSize=5.33;strokeWidth=2;" parent="1" edge="1">
                    <mxGeometry width="50" height="50" relative="1" as="geometry">
                        <mxPoint x="160" y="320" as="sourcePoint"/>
                        <mxPoint x="160" y="370" as="targetPoint"/>
                    </mxGeometry>
                </mxCell>
                <mxCell id="wuwbTMI61X3P9vxArzpo-20" value="Lock &amp;amp; Drain Cache" style="text;html=1;strokeColor=none;fillColor=none;align=center;verticalAlign=middle;whiteSpace=wrap;rounded=0;fontSize=14;fontStyle=1" parent="1" vertex="1">
                    <mxGeometry x="100" y="300" width="150" height="20" as="geometry"/>
                </mxCell>
            </root>
        </mxGraphModel>
    </diagram>
</mxfile>